<!DOCTYPE svg PUBLIC "-//W3C//DTD SVG 20010904//EN" "http://www.w3.org/TR/2001/REC-SVG-20010904/DTD/svg10.dtd">
<svg version="1.0" xmlns="http://www.w3.org/2000/svg" width="750px" height="750px" viewBox="0 0 7500 7500" preserveAspectRatio="xMidYMid meet">
<g id="layer101" fill="#5181d0" stroke="none">
 <path d="M3450 6534 c-665 -81 -1194 -341 -1655 -815 -418 -430 -677 -971 -761 -1589 -21 -153 -24 -511 -5 -655 43 -347 134 -649 287 -955 743 -1486 2575 -2028 3974 -1176 312 190 619 488 831 805 103 155 236 423 258 524 15 64 -9 48 -72 -51 -203 -316 -490 -604 -812 -814 -616 -404 -1375 -534 -2077 -357 -515 129 -987 422 -1320 819 -293 349 -490 786 -565 1255 -22 139 -25 560 -4 705 111 788 547 1457 1224 1880 341 212 700 318 852 251 133 -59 218 -187 239 -361 4 -34 -25 -538 -74 -1300 -88 -1342 -91 -1442 -52 -1585 77 -277 223 -441 527 -590 157 -77 236 -102 410 -129 196 -31 599 -59 545 -39 -8 3 -17 9 -20 13 -3 4 -54 26 -115 50 -200 77 -292 135 -393 245 -96 105 -153 232 -167 370 -4 33 5 233 19 444 14 211 26 394 26 407 0 13 5 24 10 24 6 0 129 -78 274 -174 318 -210 318 -210 324 -369 4 -92 5 -97 22 -82 27 24 97 174 109 233 25 122 9 206 -56 294 -30 42 -89 85 -345 255 -299 199 -308 205 -308 237 0 18 18 308 40 645 22 336 40 662 40 724 0 343 -80 555 -261 691 -127 96 -199 126 -356 152 -94 15 -512 28 -593 18z"/>
 </g>
<g id="layer102" fill="#6b60df" stroke="none">
 <path d="M3883 6523 c9 -2 25 -2 35 0 9 3 1 5 -18 5 -19 0 -27 -2 -17 -5z"/>
 <path d="M3973 6513 c9 -2 25 -2 35 0 9 3 1 5 -18 5 -19 0 -27 -2 -17 -5z"/>
 <path d="M4043 6503 c9 -2 25 -2 35 0 9 3 1 5 -18 5 -19 0 -27 -2 -17 -5z"/>
 <path d="M4130 6490 c53 -16 143 -52 158 -63 8 -6 12 -6 12 0 0 15 -114 62 -163 68 l-42 5 35 -10z"/>
 <path d="M2808 6388 c-16 -5 -28 -13 -28 -18 0 -7 54 14 69 27 8 6 -13 2 -41 -9z"/>
 <path d="M3505 6389 c4 -5 18 -9 33 -9 33 0 105 -32 149 -66 18 -14 33 -21 33 -16 0 12 -66 58 -110 75 -45 18 -112 29 -105 16z"/>
 <path d="M3315 6370 c-80 -18 -229 -69 -222 -76 2 -2 43 9 90 25 79 27 194 54 272 64 20 3 15 4 -15 5 -25 0 -81 -8 -125 -18z"/>
 <path d="M4420 6332 c19 -17 47 -45 63 -63 15 -18 27 -27 27 -20 0 15 -47 61 -94 92 -29 19 -28 19 4 -9z"/>
 <path d="M2498 6249 c-43 -21 -78 -41 -78 -44 0 -5 159 72 169 81 14 13 -25 -2 -91 -37z"/>
 <path d="M2996 6259 c-152 -68 -373 -209 -541 -344 -108 -87 -307 -289 -395 -400 -89 -113 -191 -267 -251 -382 -50 -94 -72 -125 -94 -133 -23 -7 -85 -53 -85 -62 0 -6 -7 -8 -15 -4 -9 3 -24 -3 -35 -14 -11 -11 -20 -17 -20 -12 0 4 -4 2 -8 -4 -4 -7 -23 -19 -42 -28 -63 -30 -80 -41 -80 -48 0 -5 -5 -8 -11 -8 -24 0 -79 -33 -84 -51 -4 -11 -11 -17 -16 -14 -5 4 -9 2 -9 -3 0 -5 -11 -15 -25 -22 -14 -7 -25 -19 -25 -27 0 -7 -5 -13 -11 -13 -5 0 -7 5 -3 12 4 7 3 8 -5 4 -6 -4 -9 -12 -6 -17 4 -5 2 -9 -4 -9 -5 0 -13 -9 -16 -20 -4 -11 -10 -18 -14 -16 -8 6 -41 -29 -41 -44 0 -5 -4 -12 -10 -15 -5 -3 8 46 30 109 144 418 366 764 693 1082 80 78 126 129 103 114 -60 -41 -333 -332 -416 -445 -280 -377 -460 -827 -526 -1315 -21 -153 -24 -511 -5 -655 43 -347 134 -649 287 -955 743 -1486 2575 -2028 3974 -1176 312 191 619 488 831 805 114 171 270 498 256 535 -10 26 -21 19 -55 -39 -18 -29 -68 -102 -112 -162 -609 -821 -1597 -1234 -2580 -1077 -589 94 -1154 413 -1532 864 -243 289 -426 652 -517 1021 -55 225 -66 319 -66 594 0 254 8 348 46 535 157 772 681 1446 1409 1811 124 63 138 78 26 28z m3344 -3665 c-69 -172 -279 -542 -301 -528 -4 2 -9 -3 -13 -11 -3 -8 -11 -15 -17 -15 -7 0 -4 9 7 21 16 17 16 22 4 30 -12 8 -10 9 6 4 17 -4 23 0 26 19 3 14 1 23 -3 20 -5 -3 -9 -1 -9 5 0 5 6 12 13 14 7 4 6 6 -5 6 -12 1 -16 9 -13 34 2 17 4 41 4 51 1 11 4 16 8 13 3 -4 20 13 37 37 17 24 72 97 123 164 50 66 106 146 124 176 19 31 35 52 37 47 1 -4 -11 -44 -28 -87z"/>
 <path d="M3778 6205 c29 -48 49 -61 30 -20 -6 14 -14 25 -18 25 -4 0 -10 9 -13 20 -3 11 -10 20 -16 20 -5 0 2 -20 17 -45z"/>
 <path d="M2304 6137 c-124 -79 -214 -145 -214 -157 0 -5 8 -3 18 4 30 25 106 80 137 100 16 11 34 23 40 28 5 5 34 24 63 43 30 18 56 36 59 39 17 17 -13 0 -103 -57z"/>
 <path d="M4550 6175 c0 -13 42 -86 46 -82 6 5 -33 87 -41 87 -3 0 -5 -2 -5 -5z"/>
 <path d="M3830 6079 c11 -38 26 -55 17 -19 -4 14 -7 31 -7 38 0 6 -4 12 -9 12 -6 0 -6 -12 -1 -31z"/>
 <path d="M4616 6001 c38 -146 41 -295 17 -683 -14 -226 -20 -278 -31 -278 -12 0 -12 3 -2 16 8 8 9 14 4 13 -17 -4 -44 13 -37 25 3 6 1 6 -8 -1 -18 -18 -30 -16 -27 4 4 21 -31 31 -42 13 -6 -9 -10 -6 -15 9 -5 17 -10 19 -25 11 -19 -10 -47 10 -33 24 4 4 -1 4 -11 0 -15 -6 -17 -4 -11 6 6 9 4 11 -6 5 -19 -13 -49 -14 -49 -2 0 5 9 7 20 4 11 -3 18 -1 14 4 -3 5 -12 9 -20 9 -8 0 -14 4 -14 8 0 4 -8 8 -19 8 -13 0 -17 -5 -13 -16 4 -12 1 -11 -15 3 -11 10 -24 17 -29 16 -23 -4 -45 2 -39 11 12 20 -15 40 -40 30 -19 -7 -23 -6 -18 6 4 10 0 12 -11 8 -9 -3 -16 -10 -16 -15 0 -5 -5 -9 -12 -9 -6 0 -4 8 6 19 17 19 17 19 -3 14 -13 -3 -21 -1 -21 6 0 7 -4 10 -10 6 -5 -3 -7 -12 -3 -20 3 -8 0 -15 -5 -15 -6 0 -9 9 -7 20 2 11 -1 22 -6 26 -5 3 -8 0 -7 -7 2 -7 -5 -15 -14 -17 -10 -2 -18 1 -18 7 0 6 5 11 11 11 5 0 7 5 4 11 -5 7 -14 4 -28 -8 -15 -12 -18 -13 -9 -2 16 21 4 31 -21 18 -14 -8 -18 -8 -13 0 4 6 2 11 -3 11 -6 0 -11 -8 -11 -17 0 -14 -2 -15 -9 -4 -5 7 -13 11 -19 7 -6 -3 -14 -1 -18 5 -5 8 -3 9 6 4 9 -5 11 -4 6 4 -4 6 -16 9 -27 6 -11 -4 -19 -2 -19 6 0 9 -4 8 -15 -1 -12 -10 -15 -10 -15 4 0 19 -11 21 -27 5 -13 -13 -13 -20 12 366 13 196 18 365 8 280 -2 -16 -39 -590 -84 -1275 -87 -1341 -90 -1442 -51 -1585 77 -277 223 -441 527 -590 202 -99 320 -127 675 -160 295 -27 329 -16 158 49 -57 22 -130 53 -163 69 -187 92 -337 259 -388 433 -28 96 -28 173 -3 563 14 211 26 394 26 407 0 13 5 24 10 24 6 0 129 -78 274 -174 314 -208 317 -211 324 -358 6 -113 19 -113 77 -1 63 122 82 252 50 343 -35 100 -69 130 -397 347 -299 199 -308 205 -308 237 0 18 18 308 40 645 41 630 46 791 30 921 -14 105 -30 180 -39 180 -5 0 -2 -22 5 -49z"/>
 <path d="M4247 5224 c-12 -12 3 -22 24 -17 16 4 17 8 7 14 -16 10 -23 11 -31 3z"/>
 </g>

</svg>